<svg xmlns="http://www.w3.org/2000/svg" data-name="Layer 1" viewBox="0 0 168 168" id="book"><path fill="#2d4356" d="M73.25238 50.80908c-17.74408-4.62939-39.5849.98242-40.5058 1.22363A1 1 0 0 0 32.99951 54a.98842.98842 0 0 0 .25336-.03271c.22119-.05713 22.26373-5.71881 39.49475-1.22272a1.00011 1.00011 0 1 0 .50476-1.93549zM73.25238 58.80908c-17.74408-4.62939-39.5849.98242-40.5058 1.22363A1 1 0 0 0 32.99951 62a.98842.98842 0 0 0 .25336-.03271c.22119-.05713 22.26373-5.71881 39.49475-1.22272a1.00011 1.00011 0 1 0 .50476-1.93549zM73.25238 66.80908c-17.74408-4.62891-39.5849.98242-40.5058 1.22363A1 1 0 0 0 32.99951 70a.98842.98842 0 0 0 .25336-.03271c.22119-.05762 22.26373-5.71881 39.49475-1.22272a1.00011 1.00011 0 1 0 .50476-1.93549zM73.25238 74.80908c-17.74408-4.62842-39.5849.98187-40.5058 1.22363A1 1 0 0 0 32.99951 78a.98842.98842 0 0 0 .25336-.03271c.22119-.05713 22.26373-5.71881 39.49475-1.22272a1.00011 1.00011 0 1 0 .50476-1.93549zM73.25238 82.80908c-17.74408-4.62988-39.5849.98187-40.5058 1.22363A1 1 0 0 0 32.99951 86a.98842.98842 0 0 0 .25336-.03271c.22119-.05762 22.26373-5.7193 39.49475-1.22272a1.00011 1.00011 0 1 0 .50476-1.93549zM73.25238 90.80908c-17.74408-4.62988-39.5849.98187-40.5058 1.22363A1 1 0 0 0 32.99951 94a.98842.98842 0 0 0 .25336-.03271c.22119-.0567 22.26373-5.7193 39.49475-1.22272a1.00011 1.00011 0 1 0 .50476-1.93549zM73.25238 98.80908c-17.74408-4.62939-39.5849.98187-40.5058 1.22363A1 1 0 0 0 32.99951 102a.98842.98842 0 0 0 .25336-.03271c.22119-.05762 22.26373-5.7193 39.49475-1.22272a1.00011 1.00011 0 1 0 .50476-1.93549zM73.25238 106.80908c-17.74408-4.62891-39.5849.98138-40.5058 1.22363A1 1 0 0 0 32.99951 110a.98842.98842 0 0 0 .25336-.03271c.22119-.0567 22.26373-5.7193 39.49475-1.22272a1.00011 1.00011 0 1 0 .50476-1.93549zM73.25238 114.80908c-17.74408-4.62891-39.5849.98242-40.5058 1.22363A1 1 0 0 0 32.99951 118a.98842.98842 0 0 0 .25336-.03271c.22119-.05762 22.26373-5.71973 39.49475-1.22272a1.00011 1.00011 0 1 0 .50476-1.93549zM134.25342 52.03271c-.92145-.24176-22.76276-5.855-40.5058-1.22363a1.00011 1.00011 0 1 0 .50476 1.93549c17.22949-4.497 39.274 1.16559 39.49469 1.22272A.98888.98888 0 0 0 134.00049 54a1 1 0 0 0 .25293-1.96729zM134.25342 60.03271c-.92145-.24225-22.76276-5.85455-40.5058-1.22363a1.00011 1.00011 0 1 0 .50476 1.93549c17.22949-4.497 39.274 1.16559 39.49469 1.22272A.98888.98888 0 0 0 134.00049 62a1 1 0 0 0 .25293-1.96729zM134.25342 68.03271c-.92145-.24121-22.76276-5.85455-40.5058-1.22363a1.00011 1.00011 0 1 0 .50476 1.93549c17.22949-4.497 39.274 1.16559 39.49469 1.22272A.98888.98888 0 0 0 134.00049 70a1 1 0 0 0 .25293-1.96729zM134.25342 76.03271c-.92145-.24225-22.76276-5.854-40.5058-1.22363a1.00011 1.00011 0 1 0 .50476 1.93549c17.22949-4.49658 39.274 1.16559 39.49469 1.22272A.98888.98888 0 0 0 134.00049 78a1 1 0 0 0 .25293-1.96729zM134.25342 84.03271c-.92145-.24176-22.76276-5.85553-40.5058-1.22363a1.00011 1.00011 0 1 0 .50476 1.93549c17.22949-4.49658 39.274 1.16559 39.49469 1.22272A.98888.98888 0 0 0 134.00049 86a1 1 0 0 0 .25293-1.96729zM134.25342 92.03271c-.92145-.24176-22.76276-5.855-40.5058-1.22363a1.00011 1.00011 0 1 0 .50476 1.93549c17.22949-4.49658 39.274 1.16559 39.49469 1.22272A.98888.98888 0 0 0 134.00049 94a1 1 0 0 0 .25293-1.96729zM134.25342 100.03271c-.92145-.24225-22.76276-5.85455-40.5058-1.22363a1.00011 1.00011 0 1 0 .50476 1.93549c17.22949-4.49658 39.274 1.16559 39.49469 1.22272a.98888.98888 0 0 0 .25342.03271 1 1 0 0 0 .25293-1.96729zM134.25342 108.03271c-.92145-.24176-22.76276-5.85455-40.5058-1.22363a1.00011 1.00011 0 1 0 .50476 1.93549c17.22949-4.49658 39.274 1.16559 39.49469 1.22272a.98888.98888 0 0 0 .25342.03271 1 1 0 0 0 .25293-1.96729zM134.25342 116.03271c-.92145-.24225-22.76276-5.854-40.5058-1.22363a1.00011 1.00011 0 1 0 .50476 1.93549c17.22949-4.49658 39.274 1.16559 39.49469 1.22272a.98888.98888 0 0 0 .25342.03271 1 1 0 0 0 .25293-1.96729zM156 13a3 3 0 1 0-3 3A3.00344 3.00344 0 0 0 156 13zm-3 1.5a1.5 1.5 0 1 1 1.5-1.5A1.50148 1.50148 0 0 1 153 14.5zM66 7a3 3 0 1 0-3-3A3.00344 3.00344 0 0 0 66 7zm0-4.5A1.5 1.5 0 1 1 64.5 4 1.50148 1.50148 0 0 1 66 2.5zM115 13a2 2 0 1 0-2-2A2.00229 2.00229 0 0 0 115 13zm0-3a1 1 0 1 1-1 1A1.001 1.001 0 0 1 115 10zM83 28a2 2 0 1 0-2-2A2.00229 2.00229 0 0 0 83 28zm0-3a1 1 0 1 1-1 1A1.001 1.001 0 0 1 83 25zM10 31a2 2 0 1 0-2-2A2.00229 2.00229 0 0 0 10 31zm0-3a1 1 0 1 1-1 1A1.001 1.001 0 0 1 10 28z"></path><circle cx="2" cy="130" r="2" fill="#2d4356"></circle><path fill="#2d4356" d="M11 128H8a2 2 0 0 0 0 4h3a2 2 0 0 0 0-4zM160 128h-3a2 2 0 0 0 0 4h3a2 2 0 0 0 0-4z"></path><circle cx="166" cy="130" r="2" fill="#2d4356"></circle><path fill="#2d4356" d="M150.72131,128h-2.88165A4.50689,4.50689,0,0,0,148,126.855V48.21967c0-2.68359-2.27-5.43158-4.8335-6.34961C134.91553,38.91547,121.72021,37,109.55127,37c-9.46289,0-18.3042,1.15717-23.72266,3.88477a4.1827,4.1827,0,0,1-3.65723,0C76.75336,38.15771,67.91016,37,58.44873,37,46.27881,36.99951,33.085,38.915,24.8335,41.87006,22.27,42.78809,20,45.53607,20,48.21967V126.855A4.50689,4.50689,0,0,0,20.16034,128H17.27869a2.017,2.017,0,1,0,0,4H150.72131a2.017,2.017,0,1,0,0-4ZM45.036,128a131.99911,131.99911,0,0,1,14.46936-.88922A81.13605,81.13605,0,0,1,71.81848,128Zm51.14539,0a81.1309,81.1309,0,0,1,12.31519-.88922A131.98081,131.98081,0,0,1,122.96539,128ZM144,126.855a.62618.62618,0,0,1-.01318.1391.51619.51619,0,0,1-.08154.00592.95423.95423,0,0,1-.14355-.01221l-1.896-.30713c-10.83051-1.75488-22.02936-3.5694-33.36914-3.5694a74.81,74.81,0,0,0-21.7417,2.89655c-.27777.0835-.55371.1734-.8291.2627-.34668.11279-.6485.2041-.92578.27777V62a1,1,0,0,0-2,0v64.563c-.23492-.06689-.48975-.147-.76758-.23981-.2832-.09473-.56641-.18842-.85114-.2749a74.67675,74.67675,0,0,0-21.87592-2.9375c-11.33936,0-22.53906,1.81451-33.37012,3.56989l-1.895.30664a.94156.94156,0,0,1-.14551.0127.51619.51619,0,0,1-.08154-.00592A.62994.62994,0,0,1,24,126.855V48.21967a3.56161,3.56161,0,0,1,2.18213-2.584C34.04688,42.81927,46.7124,40.99951,58.44873,41c9.70795,0,17.49463,1.228,21.92389,3.45746A7.99915,7.99915,0,0,0,83,45.24219V54a1,1,0,0,0,2,0V45.24219a7.99492,7.99492,0,0,0,2.627-.78473C92.05707,42.228,99.84332,41,109.55127,41c11.73682,0,24.40234,1.81927,32.2666,4.63568A3.56148,3.56148,0,0,1,144,48.21967Z"></path><polygon fill="#0bceb2" points="34.583 13.011 36.07 11.056 35.131 10.524 34.177 12.714 34.145 12.714 33.175 10.539 32.22 11.087 33.691 12.996 33.691 13.027 31.391 12.73 31.391 13.794 33.707 13.497 33.707 13.528 32.22 15.436 33.112 16 34.13 13.794 34.16 13.794 35.099 15.984 36.085 15.421 34.583 13.543 34.583 13.512 36.945 13.794 36.945 12.73 34.583 13.042 34.583 13.011"></polygon><polygon fill="#0bceb2" points="49.777 33.067 48.92 34.166 49.434 34.49 50.02 33.22 50.038 33.22 50.578 34.481 51.146 34.157 50.281 33.075 50.281 33.057 51.641 33.22 51.641 32.607 50.281 32.787 50.281 32.769 51.137 31.643 50.597 31.337 50.047 32.598 50.029 32.598 49.471 31.345 48.92 31.661 49.768 32.76 49.768 32.778 48.443 32.607 48.443 33.22 49.777 33.049 49.777 33.067"></polygon><polygon fill="#0bceb2" points="153 46.713 153 45.67 150.683 45.977 150.683 45.946 152.142 44.028 151.221 43.506 150.285 45.654 150.253 45.654 149.302 43.521 148.365 44.059 149.808 45.931 149.808 45.962 147.552 45.67 147.552 46.713 149.823 46.422 149.823 46.453 148.365 48.325 149.24 48.878 150.238 46.713 150.268 46.713 151.189 48.862 152.156 48.31 150.683 46.468 150.683 46.437 153 46.713"></polygon><polygon fill="#0bceb2" points="111.702 33.023 110.444 34.638 111.198 35.115 112.06 33.248 112.085 33.248 112.88 35.101 113.714 34.625 112.443 33.036 112.443 33.009 114.442 33.248 114.442 32.348 112.443 32.612 112.443 32.586 113.701 30.931 112.907 30.481 112.099 32.334 112.073 32.334 111.252 30.494 110.444 30.958 111.689 32.573 111.689 32.599 109.742 32.348 109.742 33.248 111.702 32.996 111.702 33.023"></polygon><path fill="#0bceb2" d="M118.15387 137h-8.30774a2.00641 2.00641 0 0 0 0 4h8.30774a2.00641 2.00641 0 0 0 0-4zM58.15387 137H49.84613a2.00641 2.00641 0 0 0 0 4h8.30774a2.00641 2.00641 0 0 0 0-4zM104 137H64a2 2 0 0 0 0 4H79.94v2H72a2 2 0 0 0 0 4H97a2 2 0 0 0 0-4H88.06v-2H104a2 2 0 0 0 0-4z"></path></svg>