<svg xmlns="http://www.w3.org/2000/svg" viewBox="0 0 64 64" id="idea"><path fill="#1976d2" d="M36 49h-8c-.5 0-.9-.4-1-.9l-3-20c-.1-.3.1-.7.3-.9.3-.2.6-.3.9-.2l2.7.7 1.2-.5c.6-.2 1.1-.2 1.6 0h.1l1 .5h.2l1-.5h.1c.5-.2 1-.2 1.5 0l1.3.5h.1l2.5-.7c.3-.1.7 0 .9.2.3.2.4.6.3.9l-3 20c.2.5-.2.9-.7.9zm-7.1-2h6.3l2.6-17.6-1 .3c-.5.2-1.1.1-1.5-.1l-1.1-.5H34l-1 .5h-.1c-.5.2-1 .2-1.5 0h-.1l-1-.5h-.2l-1.1.5c-.6.2-1 .2-1.5 0l-1.1-.3L28.9 47zM32 9c-.6 0-1-.4-1-1V6c0-.6.4-1 1-1s1 .4 1 1v2c0 .6-.4 1-1 1zm-9.5 2.5c-.3 0-.7-.2-.9-.5l-1-1.7c-.3-.5-.1-1.1.4-1.4s1.1-.1 1.4.4l1 1.7c.3.5.1 1.1-.4 1.4-.2.1-.3.1-.5.1zm-7 7c-.2 0-.3 0-.5-.1l-1.7-1c-.5-.3-.6-.9-.4-1.4.3-.5.9-.6 1.4-.4l1.7 1c.5.3.6.9.4 1.4-.2.3-.6.5-.9.5zm33 0c-.3 0-.7-.2-.9-.5-.3-.5-.1-1.1.4-1.4l1.7-1c.5-.3 1.1-.1 1.4.4.3.5.1 1.1-.4 1.4l-1.7 1c-.2.1-.3.1-.5.1zm-7-7c-.2 0-.3 0-.5-.1-.5-.3-.6-.9-.4-1.4l1-1.7c.3-.5.9-.6 1.4-.4.5.3.6.9.4 1.4l-1 1.7c-.2.3-.6.5-.9.5z"></path><path fill="#26fca6" d="M32 11c-8.8 0-16 7.2-16 16 0 4.8 2.1 9.3 5.8 12.3l2.2 9c0 .1 0 .1.1.1-.1.2-.1.4-.1.6v1c0 .4.1.7.3 1-.2.3-.3.6-.3 1v1c0 .4.1.7.3 1-.2.3-.3.6-.3 1v1c0 1.2.8 2 2 2h1v1c0 1.2.8 2 2 2h6c1.2 0 2-.8 2-2v-1h1c1.2 0 2-.8 2-2v-1c0-.4-.1-.7-.3-1 .2-.3.3-.6.3-1v-1c0-.4-.1-.7-.3-1 .2-.3.3-.6.3-1v-1c0-.2 0-.4-.1-.6l.1-.1 2.2-9c3.7-3 5.8-7.4 5.8-12.3 0-8.8-7.2-16-16-16zm6 39H26v-1h12v1zm0 3H26v-1h12v1zm-3 6h-6v-1h6v1zm3-3H26v-1h12v1zm2.7-18.1c-.2.1-.3.3-.4.6L38.2 47H25.8l-2.1-8.5c-.1-.2-.2-.4-.4-.6C19.9 35.3 18 31.3 18 27c0-7.7 6.3-14 14-14s14 6.3 14 14c0 4.3-1.9 8.3-5.3 10.9z"></path></svg>