<svg xmlns="http://www.w3.org/2000/svg" data-name="Layer 1" viewBox="0 0 168 168" id="running"><circle cx="2" cy="145.648" r="2" fill="#2d4356"></circle><path fill="#2d4356" d="M11,143.64834H8a2,2,0,0,0,0,4h3a2,2,0,0,0,0-4Z"></path><path fill="#0bceb2" d="M118.15387 151.64834h-8.30774a2.00641 2.00641 0 0 0 0 4h8.30774a2.00641 2.00641 0 0 0 0-4zM58.15387 151.64834H49.84613a2.00641 2.00641 0 0 0 0 4h8.30774a2.00641 2.00641 0 0 0 0-4zM104 151.64834H64a2 2 0 0 0 0 4H79.94v2H72a2 2 0 0 0 0 4H97a2 2 0 1 0 0-4H88.06v-2H104a2 2 0 1 0 0-4z"></path><path fill="#2d4356" d="M32,79.37051H55.667a2.00006,2.00006,0,0,0,0-4.00012H32a2.00006,2.00006,0,0,0,0,4.00012Z"></path><path fill="#0bceb2" d="M22,89.43624H45.667a2.00006,2.00006,0,0,0,0-4.00012H22a2.00006,2.00006,0,0,0,0,4.00012Z"></path><path fill="#2d4356" d="M55.667 95.50137H32a2 2 0 0 0 0 4.00006H55.667a2 2 0 0 0 0-4.00006zM160 143.64834h-3a2 2 0 0 0 0 4h3a2 2 0 0 0 0-4z"></path><circle cx="166" cy="145.648" r="2" fill="#2d4356"></circle><path fill="#2d4356" d="M150.72,143.64834H107.74c.07-.08.13-.15.19-.23a4.90155,4.90155,0,0,0,.16-5.54l-4.29-6.91c.49-.54,1.21-1.28,1.83-1.92,3.47-3.57,8.3-8.56,9.52-13.25995a2.18353,2.18353,0,0,0,.11-.44,7.13567,7.13567,0,0,0-.06-3.47c-2.77-9.64-11.86-15.42-15.81-17.53,2-4.35,6.18-13.79,7.42-19.26l11.21,3.84a2.0015,2.0015,0,0,0,2.02-.44l18-16.94a2.01041,2.01041,0,0,0,.13-2.78l-5-5.7a1.95968,1.95968,0,0,0-.76-.54,4.39469,4.39469,0,0,0-3.64.07c-1.64.79-2.9,2.64-3.75,5.5-.58,1.02-4.42,4.56-8.05,7.59-2.03-.98-6.33-3.09-9.29-4.76l.76-.79a2.97574,2.97574,0,0,0,.27-.35c.6-.99005,5.75-9.82,2.96-15.6-.82-1.69-2.68-3.83-6.92-4.37-4.21-.54-7.33.19-9.27,2.15-2.87,2.91-2.23,7.42-1.81,10.41.07.5.14.96.17,1.35a3.537,3.537,0,0,1-1.09,3.1c-19.65,2.5-27.89,11.44-28.24,11.82a.21957.21957,0,0,1-.03.05,1.43189,1.43189,0,0,0-.11.15.98962.98962,0,0,0-.11.17,1.00793,1.00793,0,0,0-.07.15,1.53722,1.53722,0,0,0-.08.19c-.02.05-.03.1-.05.15-.01.08-.03.15-.04.22,0,.05-.01.1-.01.15,0,.04-.01.07-.01.11v29.36a2.02154,2.02154,0,0,0,.6,1.43,2.05726,2.05726,0,0,0,1.45.57l7.16-.17a2.01008,2.01008,0,0,0,1.73-1.08c3.17-6.08,1.33-9.49005-.03-10.97l.98-11.52,5.98-2.31c-2.02,20.43-10.51,34.14-12.37,36.94-7.45,2.41-14.08,8.87-16.26,11.16l-2.18-.3a1.643,1.643,0,0,0-.38-.02,6.09394,6.09394,0,0,0-5.68,6.02v14.55H17.28a2.0172,2.0172,0,1,0,0,4H150.72a2.0172,2.0172,0,1,0,0-4Zm-21.89-84.34c.58-1.97,1.27-2.91,1.68-3.11a.14442.14442,0,0,1,.07-.02l3.31,3.78-2.7,2.55a7.2508,7.2508,0,0,1-2.4-3.1A1.03686,1.03686,0,0,0,128.83,59.30831Zm-56.94,37.9-3.89.09v-5.98a4.3639,4.3639,0,0,1,3.81.37C72.55,92.26833,73.27,93.99832,71.89,97.20834Zm1.39-22.88a2.009,2.009,0,0,0-1.27,1.7l-.95,11.2a8.36813,8.36813,0,0,0-3.06-.06v-15.92c1.79-.74,4.45-1.4,5.54-.24a1.99873,1.99873,0,1,0,2.92-2.73,5.83584,5.83584,0,0,0-2.48-1.57,54.4189,54.4189,0,0,1,19.76-5.97,2.07663,2.07663,0,0,0,.75-.25,7.38274,7.38274,0,0,0,3.34-7.12c-.04-.45-.12-.97-.2-1.55-.05-.34-.1-.71-.15-1.09l-.02-4.06a3.53322,3.53322,0,0,1,.87-1.89c1.26-1.28,3.91-1.24,5.92-.99,2.96.37994,3.61,1.7,3.82,2.14a4.35638,4.35638,0,0,1,.37,1.33,12.71469,12.71469,0,0,1-.44,4.07,28.164,28.164,0,0,1-2.6,6.2l-2.34,2.43a2.00551,2.00551,0,0,0,.33,3.06c3.41,2.27,12.62,6.65,13.01,6.84a2.01288,2.01288,0,0,0,2.13-.25995q4.99493-4.11008,7.59-6.74005a11.04572,11.04572,0,0,0,2.12,2.42l-10.07,9.47-12.37-4.24a2.00137,2.00137,0,0,0-2.64,2.01,22.03413,22.03413,0,0,1-1.58,6.1l-1.51,4c-.4,1-.81,2.01-1.24,3.04a35.30673,35.30673,0,0,1-14.24-1.34,92.57116,92.57116,0,0,0,1.4-10.23,2.40813,2.40813,0,0,0,0-.38l4.36-1.69a1.98649,1.98649,0,0,0,1.14-2.58,2.01438,2.01438,0,0,0-2.59-1.15Zm23.77,15.48c-.6,1.35-1.19,2.64-1.75,3.85a34.91973,34.91973,0,0,1-12.58-1.44c.36-1.27.7-2.59,1.03-3.96a38.05508,38.05508,0,0,0,11.18,1.61C95.61,89.86831,96.32,89.84835,97.05,89.80831Zm-26.31,26.24a4.48307,4.48307,0,0,1,1.89,1.24005,1.98672,1.98672,0,0,0,1.68.92,1.99758,1.99758,0,0,0,1.69-3.08,6.72621,6.72621,0,0,0-2.27-2.06,81.16861,81.16861,0,0,0,7.81-17.02,37.81958,37.81958,0,0,0,11.43,1.69c1.22,0,2.52-.07,3.87006-.2,2.25,1.15,8.28,4.56995,12.02,10.17a11.74,11.74,0,0,0-3.51-1.22,2.00085,2.00085,0,0,0-.7,3.94c3.58.63,5.73,3.63,6.49,4.91-1.23,3.56-5.88,8.35-8.38,10.92-.7.73-1.27,1.32-1.74,1.83l-3.71-3,7.46-8.67a2.00259,2.00259,0,0,0-1.15-3.27c-17.07-3.26-17.62-8.45-17.62-8.5a.60434.60434,0,0,1-.01.13l-3.98-.3c-.06.69.04,2.73,2.45,5.11-1,2.03-5.63,10.42-16.69,15.99l-1.45.73c-2.88,1.44-5.16,2.59-6.98,3.6a9.64509,9.64509,0,0,0-2.43005-4.53C59.41,122.88833,64.92,117.93832,70.74,116.0483Zm-17.78,19.67a12.08007,12.08007,0,0,0-.4,1.7c-1.16,5.93005-2.15,6.23-2.34,6.23H49v-14.55a2.06971,2.06971,0,0,1,1.74-2.01l2.51.35a5.73934,5.73934,0,0,1,2.3,4.9A7.6385,7.6385,0,0,0,52.96,135.71835Zm2.03,7.93a27.64545,27.64545,0,0,0,1.49-5.46c.09-.42.19-.95.23-1.07.69-1.86,4.05-3.54,11.4-7.24l1.46-.73a41.37513,41.37513,0,0,0,18.14-17.12,41.87348,41.87348,0,0,0,11.82,4.34l-11.72,13.62c-.03.04-.06.07-.09.11a4.01654,4.01654,0,0,0,1.05,5.79l11.15,7.76Zm49.71-2.58a.86284.86284,0,0,1-1.12.25l-12.56-8.74c-.03-.02-.06-.06-.09-.08l3.77-4.38,5.28,4.28,4.74,7.64A.9031.9031,0,0,1,104.7,141.06832Z"></path><path fill="#0bceb2" d="M108 51.32833a19.82343 19.82343 0 0 0-10.52-.6l-.02-4.06a23.9236 23.9236 0 0 1 10.98.59A12.71469 12.71469 0 0 1 108 51.32833zM101.58 78.61831l-1.51 4H95a2 2 0 0 1 0-4z"></path><path fill="#2d4356" d="M155 12.35166a3 3 0 1 0-3-3A3.00344 3.00344 0 0 0 155 12.35166zm0-4.5a1.5 1.5 0 1 1-1.5 1.5A1.50148 1.50148 0 0 1 155 7.85166zM160.30471 55.28368a2 2 0 1 0 2 2A2.00229 2.00229 0 0 0 160.30471 55.28368zm0 3a1 1 0 1 1 1-1A1.001 1.001 0 0 1 160.30471 58.28368zM52.34682 54.8037a2 2 0 1 0 2 2A2.00229 2.00229 0 0 0 52.34682 54.8037zm0 3a1 1 0 1 1 1-1A1.001 1.001 0 0 1 52.34682 57.8037zM109 21.6481a2 2 0 1 0 2 2A2.00229 2.00229 0 0 0 109 21.6481zm0 3a1 1 0 1 1 1-1A1.001 1.001 0 0 1 109 24.6481zM8 52.8037a2 2 0 1 0-2 2A2.00229 2.00229 0 0 0 8 52.8037zm-3 0a1 1 0 1 1 1 1A1.001 1.001 0 0 1 5 52.8037z"></path><polygon fill="#0bceb2" points="30.415 21.512 31.902 19.557 30.963 19.025 30.009 21.215 29.977 21.215 29.008 19.04 28.052 19.588 29.524 21.497 29.524 21.528 27.223 21.231 27.223 22.295 29.539 21.998 29.539 22.029 28.052 23.937 28.944 24.501 29.962 22.295 29.992 22.295 30.931 24.485 31.917 23.922 30.415 22.044 30.415 22.013 32.777 22.295 32.777 21.231 30.415 21.543 30.415 21.512"></polygon><polygon fill="#0bceb2" points="71.039 38.457 70.183 39.556 70.697 39.881 71.283 38.61 71.3 38.61 71.841 39.871 72.409 39.547 71.544 38.466 71.544 38.448 72.904 38.61 72.904 37.997 71.544 38.177 71.544 38.159 72.4 37.033 71.859 36.727 71.31 37.988 71.292 37.988 70.733 36.736 70.183 37.051 71.03 38.151 71.03 38.169 69.705 37.997 69.705 38.61 71.039 38.439 71.039 38.457"></polygon><polygon fill="#0bceb2" points="139.338 38.825 139.338 37.782 137.022 38.088 137.022 38.058 138.48 36.14 137.559 35.618 136.623 37.766 136.592 37.766 135.641 35.633 134.704 36.17 136.147 38.043 136.147 38.073 133.89 37.782 133.89 38.825 136.162 38.534 136.162 38.565 134.704 40.436 135.578 40.989 136.577 38.825 136.607 38.825 137.528 40.974 138.495 40.421 137.022 38.58 137.022 38.549 139.338 38.825"></polygon><polygon fill="#0bceb2" points="75.605 11.436 76.863 9.782 76.069 9.332 75.261 11.185 75.235 11.185 74.414 9.345 73.606 9.808 74.851 11.423 74.851 11.45 72.904 11.198 72.904 12.098 74.864 11.847 74.864 11.873 73.606 13.488 74.36 13.965 75.222 12.098 75.247 12.098 76.042 13.952 76.876 13.475 75.605 11.886 75.605 11.86 77.604 12.098 77.604 11.198 75.605 11.463 75.605 11.436"></polygon></svg>